<mxfile host="app.diagrams.net" modified="2022-11-08T08:33:25.768Z" agent="5.0 (Macintosh; Intel Mac OS X 10_15_7) AppleWebKit/537.36 (KHTML, like Gecko) Chrome/107.0.0.0 Safari/537.36" etag="Oe9KAl00CCNZnpEMr_3S" version="20.0.2" type="github">
  <diagram id="MgfcIo1_WAvGvkfTkE-M" name="第 1 页">
    <mxGraphModel dx="893" dy="589" grid="1" gridSize="10" guides="1" tooltips="1" connect="1" arrows="1" fold="1" page="1" pageScale="1" pageWidth="827" pageHeight="1169" math="0" shadow="0">
      <root>
        <mxCell id="0" />
        <mxCell id="1" parent="0" />
        <mxCell id="_LBtkV0zMJIbg_IL796n-4" value="" style="edgeStyle=orthogonalEdgeStyle;rounded=0;orthogonalLoop=1;jettySize=auto;html=1;" edge="1" parent="1" source="_LBtkV0zMJIbg_IL796n-2" target="_LBtkV0zMJIbg_IL796n-3">
          <mxGeometry relative="1" as="geometry" />
        </mxCell>
        <mxCell id="_LBtkV0zMJIbg_IL796n-2" value="&lt;pre style=&quot;background-color: rgb(255, 255, 255); font-size: 9.8pt;&quot;&gt;&lt;font style=&quot;&quot; face=&quot;Helvetica&quot;&gt;获取当天需要进行截图的所有sku列表（DspDB）&lt;/font&gt;&lt;/pre&gt;" style="rounded=1;whiteSpace=wrap;html=1;" vertex="1" parent="1">
          <mxGeometry x="47.5" y="80" width="290" height="70" as="geometry" />
        </mxCell>
        <mxCell id="_LBtkV0zMJIbg_IL796n-7" value="" style="edgeStyle=orthogonalEdgeStyle;rounded=0;orthogonalLoop=1;jettySize=auto;html=1;" edge="1" parent="1" source="_LBtkV0zMJIbg_IL796n-3" target="_LBtkV0zMJIbg_IL796n-6">
          <mxGeometry relative="1" as="geometry" />
        </mxCell>
        <mxCell id="_LBtkV0zMJIbg_IL796n-3" value="&lt;pre style=&quot;background-color: rgb(255, 255, 255); font-size: 9.8pt;&quot;&gt;&lt;font style=&quot;&quot; face=&quot;Helvetica&quot;&gt;&lt;span style=&quot;font-style: italic;&quot;&gt;获取sku对应的refer信息(&lt;/span&gt;ScreenDB)&lt;/font&gt;&lt;/pre&gt;" style="whiteSpace=wrap;html=1;rounded=1;" vertex="1" parent="1">
          <mxGeometry x="62.5" y="220" width="260" height="70" as="geometry" />
        </mxCell>
        <mxCell id="_LBtkV0zMJIbg_IL796n-13" style="edgeStyle=orthogonalEdgeStyle;rounded=0;orthogonalLoop=1;jettySize=auto;html=1;entryX=1;entryY=0.5;entryDx=0;entryDy=0;" edge="1" parent="1" source="_LBtkV0zMJIbg_IL796n-5" target="_LBtkV0zMJIbg_IL796n-6">
          <mxGeometry relative="1" as="geometry">
            <Array as="points">
              <mxPoint x="450" y="370" />
            </Array>
          </mxGeometry>
        </mxCell>
        <mxCell id="_LBtkV0zMJIbg_IL796n-5" value="获取点位与inscode之间关系" style="rounded=1;whiteSpace=wrap;html=1;" vertex="1" parent="1">
          <mxGeometry x="390" y="80" width="120" height="60" as="geometry" />
        </mxCell>
        <mxCell id="_LBtkV0zMJIbg_IL796n-15" value="" style="edgeStyle=orthogonalEdgeStyle;rounded=0;orthogonalLoop=1;jettySize=auto;html=1;" edge="1" parent="1" source="_LBtkV0zMJIbg_IL796n-6" target="_LBtkV0zMJIbg_IL796n-14">
          <mxGeometry relative="1" as="geometry" />
        </mxCell>
        <mxCell id="_LBtkV0zMJIbg_IL796n-6" value="获取需要截图的数据对象" style="whiteSpace=wrap;html=1;rounded=1;" vertex="1" parent="1">
          <mxGeometry x="132.5" y="340" width="120" height="60" as="geometry" />
        </mxCell>
        <mxCell id="_LBtkV0zMJIbg_IL796n-17" value="" style="edgeStyle=orthogonalEdgeStyle;rounded=0;orthogonalLoop=1;jettySize=auto;html=1;fontFamily=Helvetica;fontColor=#000000;" edge="1" parent="1" source="_LBtkV0zMJIbg_IL796n-14" target="_LBtkV0zMJIbg_IL796n-16">
          <mxGeometry relative="1" as="geometry" />
        </mxCell>
        <mxCell id="_LBtkV0zMJIbg_IL796n-14" value="分成N分，交给N组主机处理" style="whiteSpace=wrap;html=1;rounded=1;" vertex="1" parent="1">
          <mxGeometry x="132.5" y="430" width="120" height="60" as="geometry" />
        </mxCell>
        <mxCell id="_LBtkV0zMJIbg_IL796n-46" value="" style="edgeStyle=orthogonalEdgeStyle;rounded=0;orthogonalLoop=1;jettySize=auto;html=1;fontFamily=Helvetica;fontSize=13.0667;fontColor=#000000;" edge="1" parent="1" source="_LBtkV0zMJIbg_IL796n-16" target="_LBtkV0zMJIbg_IL796n-45">
          <mxGeometry relative="1" as="geometry" />
        </mxCell>
        <mxCell id="_LBtkV0zMJIbg_IL796n-16" value="&lt;font style=&quot;font-size: 13.0667px;&quot;&gt;按照&lt;span style=&quot;font-family: &amp;quot;JetBrains Mono&amp;quot;, monospace;&quot;&gt;refer &lt;/span&gt;&lt;span style=&quot;background-color: rgb(255, 255, 255); font-family: &amp;quot;JetBrains Mono&amp;quot;, monospace;&quot;&gt;+ &lt;/span&gt;&lt;span style=&quot;font-family: &amp;quot;JetBrains Mono&amp;quot;, monospace;&quot;&gt;cityId &lt;/span&gt;&lt;span style=&quot;background-color: rgb(255, 255, 255); font-family: &amp;quot;JetBrains Mono&amp;quot;, monospace;&quot;&gt;+ &lt;/span&gt;&lt;span style=&quot;font-family: &amp;quot;JetBrains Mono&amp;quot;, monospace;&quot;&gt;placeId分组&lt;/span&gt;&lt;/font&gt;" style="whiteSpace=wrap;html=1;rounded=1;" vertex="1" parent="1">
          <mxGeometry x="103.75" y="510" width="177.5" height="50" as="geometry" />
        </mxCell>
        <mxCell id="_LBtkV0zMJIbg_IL796n-23" value="" style="edgeStyle=orthogonalEdgeStyle;rounded=0;orthogonalLoop=1;jettySize=auto;html=1;fontFamily=Helvetica;fontColor=#000000;exitX=0.5;exitY=1;exitDx=0;exitDy=0;" edge="1" parent="1" source="_LBtkV0zMJIbg_IL796n-20" target="_LBtkV0zMJIbg_IL796n-22">
          <mxGeometry relative="1" as="geometry">
            <mxPoint x="210" y="1020" as="sourcePoint" />
          </mxGeometry>
        </mxCell>
        <mxCell id="_LBtkV0zMJIbg_IL796n-63" style="edgeStyle=orthogonalEdgeStyle;rounded=0;orthogonalLoop=1;jettySize=auto;html=1;exitX=1;exitY=0.5;exitDx=0;exitDy=0;entryX=1;entryY=0.75;entryDx=0;entryDy=0;fontFamily=Helvetica;fontSize=13.0667;fontColor=#000000;" edge="1" parent="1" source="_LBtkV0zMJIbg_IL796n-20" target="_LBtkV0zMJIbg_IL796n-24">
          <mxGeometry relative="1" as="geometry">
            <Array as="points">
              <mxPoint x="320" y="990" />
              <mxPoint x="320" y="1225" />
            </Array>
          </mxGeometry>
        </mxCell>
        <mxCell id="_LBtkV0zMJIbg_IL796n-20" value="如果cityCode&amp;gt;0" style="rhombus;whiteSpace=wrap;html=1;rounded=1;" vertex="1" parent="1">
          <mxGeometry x="152.5" y="950" width="80" height="80" as="geometry" />
        </mxCell>
        <mxCell id="_LBtkV0zMJIbg_IL796n-25" value="" style="edgeStyle=orthogonalEdgeStyle;rounded=0;orthogonalLoop=1;jettySize=auto;html=1;fontFamily=Helvetica;fontSize=13.0667;fontColor=#000000;" edge="1" parent="1" source="_LBtkV0zMJIbg_IL796n-22" target="_LBtkV0zMJIbg_IL796n-24">
          <mxGeometry relative="1" as="geometry" />
        </mxCell>
        <mxCell id="_LBtkV0zMJIbg_IL796n-22" value="&lt;font style=&quot;font-size: 13.0667px;&quot;&gt;&lt;span style=&quot;font-style: italic; background-color: rgb(255, 255, 255);&quot;&gt;改变页面内容的城：&lt;/span&gt;设置cookie,&lt;span style=&quot;font-style: italic; background-color: rgb(255, 255, 255);&quot;&gt;&lt;br&gt;,&lt;/span&gt;&lt;span style=&quot;font-style: italic; background-color: rgb(255, 255, 255);&quot;&gt;改变广告SDK的城市：设置&lt;/span&gt;&lt;span style=&quot;background-color: rgb(255, 255, 255);&quot;&gt;script&lt;/span&gt;&lt;/font&gt;" style="whiteSpace=wrap;html=1;rounded=1;strokeColor=#000000;" vertex="1" parent="1">
          <mxGeometry x="88.76" y="1080" width="207.5" height="50" as="geometry" />
        </mxCell>
        <mxCell id="_LBtkV0zMJIbg_IL796n-28" value="" style="edgeStyle=orthogonalEdgeStyle;rounded=0;orthogonalLoop=1;jettySize=auto;html=1;fontFamily=Helvetica;fontSize=13.0667;fontColor=#000000;" edge="1" parent="1" source="_LBtkV0zMJIbg_IL796n-24" target="_LBtkV0zMJIbg_IL796n-27">
          <mxGeometry relative="1" as="geometry" />
        </mxCell>
        <mxCell id="_LBtkV0zMJIbg_IL796n-24" value="加载refer" style="whiteSpace=wrap;html=1;strokeColor=#000000;rounded=1;" vertex="1" parent="1">
          <mxGeometry x="132.5" y="1180" width="120" height="60" as="geometry" />
        </mxCell>
        <mxCell id="_LBtkV0zMJIbg_IL796n-30" value="" style="edgeStyle=orthogonalEdgeStyle;rounded=0;orthogonalLoop=1;jettySize=auto;html=1;fontFamily=Helvetica;fontSize=13.0667;fontColor=#000000;" edge="1" parent="1" source="_LBtkV0zMJIbg_IL796n-27" target="_LBtkV0zMJIbg_IL796n-29">
          <mxGeometry relative="1" as="geometry" />
        </mxCell>
        <mxCell id="_LBtkV0zMJIbg_IL796n-64" value="" style="edgeStyle=orthogonalEdgeStyle;rounded=0;orthogonalLoop=1;jettySize=auto;html=1;fontFamily=Helvetica;fontSize=13.0667;fontColor=#000000;" edge="1" parent="1" source="_LBtkV0zMJIbg_IL796n-27" target="_LBtkV0zMJIbg_IL796n-29">
          <mxGeometry relative="1" as="geometry" />
        </mxCell>
        <mxCell id="_LBtkV0zMJIbg_IL796n-66" value="" style="edgeStyle=orthogonalEdgeStyle;rounded=0;orthogonalLoop=1;jettySize=auto;html=1;fontFamily=Helvetica;fontSize=13.0667;fontColor=#000000;" edge="1" parent="1" source="_LBtkV0zMJIbg_IL796n-27" target="_LBtkV0zMJIbg_IL796n-65">
          <mxGeometry relative="1" as="geometry" />
        </mxCell>
        <mxCell id="_LBtkV0zMJIbg_IL796n-27" value="&lt;pre style=&quot;background-color: rgb(255, 255, 255); font-size: 9.8pt;&quot;&gt;&lt;ul&gt;&lt;li&gt;将页面滚动条拖到底部&lt;/li&gt;&lt;li&gt;sleep，等待页面元素加载完成&lt;/li&gt;&lt;/ul&gt;&lt;/pre&gt;" style="whiteSpace=wrap;html=1;strokeColor=#000000;rounded=1;align=center;" vertex="1" parent="1">
          <mxGeometry x="66.89" y="1280" width="251.25" height="50" as="geometry" />
        </mxCell>
        <mxCell id="_LBtkV0zMJIbg_IL796n-32" value="" style="edgeStyle=orthogonalEdgeStyle;rounded=0;orthogonalLoop=1;jettySize=auto;html=1;fontFamily=Helvetica;fontSize=13.0667;fontColor=#000000;" edge="1" parent="1" source="_LBtkV0zMJIbg_IL796n-29" target="_LBtkV0zMJIbg_IL796n-31">
          <mxGeometry relative="1" as="geometry" />
        </mxCell>
        <mxCell id="_LBtkV0zMJIbg_IL796n-29" value="找到inscode=?元素，定位到此元素" style="whiteSpace=wrap;html=1;strokeColor=#000000;rounded=1;" vertex="1" parent="1">
          <mxGeometry x="47.50499999999998" y="1380" width="120" height="60" as="geometry" />
        </mxCell>
        <mxCell id="_LBtkV0zMJIbg_IL796n-34" value="" style="edgeStyle=orthogonalEdgeStyle;rounded=0;orthogonalLoop=1;jettySize=auto;html=1;fontFamily=Helvetica;fontSize=13.0667;fontColor=#000000;" edge="1" parent="1" source="_LBtkV0zMJIbg_IL796n-31" target="_LBtkV0zMJIbg_IL796n-33">
          <mxGeometry relative="1" as="geometry" />
        </mxCell>
        <mxCell id="_LBtkV0zMJIbg_IL796n-31" value="&lt;pre style=&quot;background-color: rgb(255, 255, 255); font-family: &amp;quot;JetBrains Mono&amp;quot;, monospace; font-size: 9.8pt;&quot;&gt;&lt;span style=&quot;font-style: italic;&quot;&gt;画红色外框&lt;/span&gt;&lt;/pre&gt;" style="whiteSpace=wrap;html=1;strokeColor=#000000;rounded=1;" vertex="1" parent="1">
          <mxGeometry x="138.775" y="1510" width="120" height="60" as="geometry" />
        </mxCell>
        <mxCell id="_LBtkV0zMJIbg_IL796n-36" value="" style="edgeStyle=orthogonalEdgeStyle;rounded=0;orthogonalLoop=1;jettySize=auto;html=1;fontFamily=Helvetica;fontSize=13.0667;fontColor=#000000;" edge="1" parent="1" source="_LBtkV0zMJIbg_IL796n-33" target="_LBtkV0zMJIbg_IL796n-35">
          <mxGeometry relative="1" as="geometry" />
        </mxCell>
        <mxCell id="_LBtkV0zMJIbg_IL796n-33" value="截图，将文件保存到对应目录" style="whiteSpace=wrap;html=1;strokeColor=#000000;rounded=1;" vertex="1" parent="1">
          <mxGeometry x="138.765" y="1600" width="120" height="60" as="geometry" />
        </mxCell>
        <mxCell id="_LBtkV0zMJIbg_IL796n-69" value="" style="edgeStyle=orthogonalEdgeStyle;rounded=0;orthogonalLoop=1;jettySize=auto;html=1;fontFamily=Helvetica;fontSize=13.0667;fontColor=#000000;" edge="1" parent="1" source="_LBtkV0zMJIbg_IL796n-35" target="_LBtkV0zMJIbg_IL796n-68">
          <mxGeometry relative="1" as="geometry" />
        </mxCell>
        <mxCell id="_LBtkV0zMJIbg_IL796n-35" value="去除红色外框" style="whiteSpace=wrap;html=1;strokeColor=#000000;rounded=1;" vertex="1" parent="1">
          <mxGeometry x="138.765" y="1693.5" width="120" height="60" as="geometry" />
        </mxCell>
        <mxCell id="_LBtkV0zMJIbg_IL796n-51" value="" style="edgeStyle=orthogonalEdgeStyle;rounded=0;orthogonalLoop=1;jettySize=auto;html=1;fontFamily=Helvetica;fontSize=13.0667;fontColor=#000000;" edge="1" parent="1" source="_LBtkV0zMJIbg_IL796n-45" target="_LBtkV0zMJIbg_IL796n-50">
          <mxGeometry relative="1" as="geometry" />
        </mxCell>
        <mxCell id="_LBtkV0zMJIbg_IL796n-54" value="" style="edgeStyle=orthogonalEdgeStyle;rounded=0;orthogonalLoop=1;jettySize=auto;html=1;fontFamily=Helvetica;fontSize=13.0667;fontColor=#000000;" edge="1" parent="1" source="_LBtkV0zMJIbg_IL796n-45" target="_LBtkV0zMJIbg_IL796n-53">
          <mxGeometry relative="1" as="geometry" />
        </mxCell>
        <mxCell id="_LBtkV0zMJIbg_IL796n-55" value="若根据inscode截图失败" style="edgeLabel;html=1;align=center;verticalAlign=middle;resizable=0;points=[];fontSize=13.0667;fontFamily=Helvetica;fontColor=#000000;" vertex="1" connectable="0" parent="_LBtkV0zMJIbg_IL796n-54">
          <mxGeometry x="-0.2034" y="2" relative="1" as="geometry">
            <mxPoint y="1" as="offset" />
          </mxGeometry>
        </mxCell>
        <mxCell id="_LBtkV0zMJIbg_IL796n-45" value="&lt;span style=&quot;font-size: 13.0667px; font-family: &amp;quot;JetBrains Mono&amp;quot;, monospace;&quot;&gt;使用&lt;/span&gt;&lt;span style=&quot;font-size: 13.0667px; background-color: rgb(255, 255, 255); font-family: &amp;quot;JetBrains Mono&amp;quot;, monospace;&quot;&gt;selenium&lt;/span&gt;&lt;span style=&quot;font-size: 13.0667px; background-color: initial; font-family: &amp;quot;JetBrains Mono&amp;quot;, monospace;&quot;&gt;处理截图&lt;/span&gt;" style="whiteSpace=wrap;html=1;rounded=1;" vertex="1" parent="1">
          <mxGeometry x="132.51" y="600" width="120" height="60" as="geometry" />
        </mxCell>
        <mxCell id="_LBtkV0zMJIbg_IL796n-60" value="" style="edgeStyle=orthogonalEdgeStyle;rounded=0;orthogonalLoop=1;jettySize=auto;html=1;fontFamily=Helvetica;fontSize=13.0667;fontColor=#000000;" edge="1" parent="1" source="_LBtkV0zMJIbg_IL796n-50" target="_LBtkV0zMJIbg_IL796n-59">
          <mxGeometry relative="1" as="geometry" />
        </mxCell>
        <mxCell id="_LBtkV0zMJIbg_IL796n-50" value="处理inscode截图" style="rhombus;whiteSpace=wrap;html=1;rounded=1;" vertex="1" parent="1">
          <mxGeometry x="138.76999999999998" y="700" width="107.49" height="110" as="geometry" />
        </mxCell>
        <mxCell id="_LBtkV0zMJIbg_IL796n-61" style="edgeStyle=orthogonalEdgeStyle;rounded=0;orthogonalLoop=1;jettySize=auto;html=1;entryX=1;entryY=0.75;entryDx=0;entryDy=0;fontFamily=Helvetica;fontSize=13.0667;fontColor=#000000;" edge="1" parent="1" source="_LBtkV0zMJIbg_IL796n-53" target="_LBtkV0zMJIbg_IL796n-59">
          <mxGeometry relative="1" as="geometry">
            <Array as="points">
              <mxPoint x="490" y="895" />
            </Array>
          </mxGeometry>
        </mxCell>
        <mxCell id="_LBtkV0zMJIbg_IL796n-53" value="处理a标签截图" style="rhombus;whiteSpace=wrap;html=1;rounded=1;" vertex="1" parent="1">
          <mxGeometry x="450" y="590" width="80" height="80" as="geometry" />
        </mxCell>
        <mxCell id="_LBtkV0zMJIbg_IL796n-62" style="edgeStyle=orthogonalEdgeStyle;rounded=0;orthogonalLoop=1;jettySize=auto;html=1;exitX=0.5;exitY=1;exitDx=0;exitDy=0;fontFamily=Helvetica;fontSize=13.0667;fontColor=#000000;" edge="1" parent="1" source="_LBtkV0zMJIbg_IL796n-59" target="_LBtkV0zMJIbg_IL796n-20">
          <mxGeometry relative="1" as="geometry" />
        </mxCell>
        <mxCell id="_LBtkV0zMJIbg_IL796n-59" value="加载页面" style="whiteSpace=wrap;html=1;rounded=1;" vertex="1" parent="1">
          <mxGeometry x="132.515" y="850" width="120" height="60" as="geometry" />
        </mxCell>
        <mxCell id="_LBtkV0zMJIbg_IL796n-67" style="edgeStyle=orthogonalEdgeStyle;rounded=0;orthogonalLoop=1;jettySize=auto;html=1;entryX=0.5;entryY=0;entryDx=0;entryDy=0;fontFamily=Helvetica;fontSize=13.0667;fontColor=#000000;" edge="1" parent="1" source="_LBtkV0zMJIbg_IL796n-65" target="_LBtkV0zMJIbg_IL796n-31">
          <mxGeometry relative="1" as="geometry" />
        </mxCell>
        <mxCell id="_LBtkV0zMJIbg_IL796n-65" value="找到a标签，遍历找到a标签内包含点位id=？的（主要是找曝光链接）" style="whiteSpace=wrap;html=1;strokeColor=#000000;rounded=1;" vertex="1" parent="1">
          <mxGeometry x="246.255" y="1380" width="120" height="60" as="geometry" />
        </mxCell>
        <mxCell id="_LBtkV0zMJIbg_IL796n-68" value="两种方式都失败，记录响应日志到文件中" style="whiteSpace=wrap;html=1;strokeColor=#000000;rounded=1;" vertex="1" parent="1">
          <mxGeometry x="138.77499999999998" y="1780" width="120" height="60" as="geometry" />
        </mxCell>
      </root>
    </mxGraphModel>
  </diagram>
</mxfile>
